<?xml version="1.0" encoding="UTF-8" standalone="no"?>
<svg
   xmlns:dc="http://purl.org/dc/elements/1.1/"
   xmlns:cc="http://creativecommons.org/ns#"
   xmlns:rdf="http://www.w3.org/1999/02/22-rdf-syntax-ns#"
   xmlns:svg="http://www.w3.org/2000/svg"
   xmlns="http://www.w3.org/2000/svg"
   xmlns:sodipodi="http://sodipodi.sourceforge.net/DTD/sodipodi-0.dtd"
   xmlns:inkscape="http://www.inkscape.org/namespaces/inkscape"
   viewBox="0 0 450 450"
   x="0px"
   y="0px"
   version="1.1"
   id="svg20"
   sodipodi:docname="noun_Info_2394143.svg"
   inkscape:version="0.92.4 (5da689c313, 2019-01-14)"
   width="450"
   height="450">
  <metadata
     id="metadata26">
    <rdf:RDF>
      <cc:Work
         rdf:about="">
        <dc:format>image/svg+xml</dc:format>
        <dc:type
           rdf:resource="http://purl.org/dc/dcmitype/StillImage" />
        <dc:title>Fichier 2locate</dc:title>
      </cc:Work>
    </rdf:RDF>
  </metadata>
  <defs
     id="defs24" />
  <sodipodi:namedview
     pagecolor="#ffffff"
     bordercolor="#666666"
     borderopacity="1"
     objecttolerance="10"
     gridtolerance="10"
     guidetolerance="10"
     inkscape:pageopacity="0"
     inkscape:pageshadow="2"
     inkscape:window-width="1920"
     inkscape:window-height="986"
     id="namedview22"
     showgrid="false"
     inkscape:zoom="0.83911111"
     inkscape:cx="97.782431"
     inkscape:cy="272.65337"
     inkscape:window-x="-11"
     inkscape:window-y="-11"
     inkscape:window-maximized="1"
     inkscape:current-layer="svg20"
     fit-margin-top="0"
     fit-margin-left="0"
     fit-margin-right="0"
     fit-margin-bottom="0" />
  <title
     id="title2">Fichier 2locate</title>
  <g
     data-name="Calque 2"
     id="g14">
    <g
       data-name="Calque 2"
       id="g12">
      <circle
         cx="225"
         cy="133.5"
         r="31.25"
         id="circle4" />
      <path
         d="m 251,219.12 v 103 a 26,26 0 0 1 -52,0 v -103 a 26,26 0 0 1 52,0 z"
         id="path6"
         inkscape:connector-curvature="0" />
      <path
         d="M 225,0 C 100.74,0 0,100.74 0,225 0,349.26 100.74,450 225,450 349.26,450 450,349.26 450,225 450,100.74 349.26,0 225,0 Z M 355.81,355.81 A 185,185 0 1 1 94.19,94.19 185,185 0 1 1 355.81,355.81 Z"
         id="path8"
         inkscape:connector-curvature="0" />
      <path
         d="M 225,0 C 100.74,0 0,100.74 0,225 0,349.26 100.74,450 225,450 349.26,450 450,349.26 450,225 450,100.74 349.26,0 225,0 Z M 355.81,355.81 A 185,185 0 1 1 94.19,94.19 185,185 0 1 1 355.81,355.81 Z"
         id="path10"
         inkscape:connector-curvature="0" />
    </g>
  </g>
</svg>
