<?xml version="1.0" encoding="UTF-8" standalone="no"?>
<svg
   xmlns:dc="http://purl.org/dc/elements/1.1/"
   xmlns:cc="http://creativecommons.org/ns#"
   xmlns:rdf="http://www.w3.org/1999/02/22-rdf-syntax-ns#"
   xmlns:svg="http://www.w3.org/2000/svg"
   xmlns="http://www.w3.org/2000/svg"
   xmlns:sodipodi="http://sodipodi.sourceforge.net/DTD/sodipodi-0.dtd"
   xmlns:inkscape="http://www.inkscape.org/namespaces/inkscape"
   version="1.1"
   x="0px"
   y="0px"
   viewBox="0 0 250 250"
   xml:space="preserve"
   id="svg14"
   sodipodi:docname="info_icon.svg"
   width="250"
   height="250"
   inkscape:version="0.92.4 (5da689c313, 2019-01-14)"><metadata
     id="metadata20"><rdf:RDF><cc:Work
         rdf:about=""><dc:format>image/svg+xml</dc:format><dc:type
           rdf:resource="http://purl.org/dc/dcmitype/StillImage" /><dc:title></dc:title></cc:Work></rdf:RDF></metadata><defs
     id="defs18" /><sodipodi:namedview
     pagecolor="#ffffff"
     bordercolor="#666666"
     borderopacity="1"
     objecttolerance="10"
     gridtolerance="10"
     guidetolerance="10"
     inkscape:pageopacity="0"
     inkscape:pageshadow="2"
     inkscape:window-width="1920"
     inkscape:window-height="986"
     id="namedview16"
     showgrid="false"
     fit-margin-top="0"
     fit-margin-left="0"
     fit-margin-right="0"
     fit-margin-bottom="0"
     inkscape:zoom="2.0538732"
     inkscape:cx="-33.859245"
     inkscape:cy="372.12021"
     inkscape:window-x="-11"
     inkscape:window-y="-11"
     inkscape:window-maximized="1"
     inkscape:current-layer="svg14" /><path
     d="m 125,20 c 57.9,0 105,47.1 105,105 0,57.9 -47.1,105 -105,105 C 67.1,230 20,182.9 20,125 20,67.1 67.1,20 125,20 M 125,0 C 56,0 0,56 0,125 0,194 56,250 125,250 194,250 250,194 250,125 250,56 194,0 125,0 Z"
     id="path2"
     inkscape:connector-curvature="0" /><g
     id="g6"
     transform="translate(-5,-5)"><polygon
       points="118,171.3 118,123 142,123 142,192.5 118,192.5 "
       id="polygon4" /></g><circle
     cx="125"
     cy="76.300003"
     r="18.5"
     id="circle8" /></svg>