<?xml version="1.0" encoding="UTF-8" standalone="no"?>
<svg
   xmlns:dc="http://purl.org/dc/elements/1.1/"
   xmlns:cc="http://creativecommons.org/ns#"
   xmlns:rdf="http://www.w3.org/1999/02/22-rdf-syntax-ns#"
   xmlns:svg="http://www.w3.org/2000/svg"
   xmlns="http://www.w3.org/2000/svg"
   xmlns:sodipodi="http://sodipodi.sourceforge.net/DTD/sodipodi-0.dtd"
   xmlns:inkscape="http://www.inkscape.org/namespaces/inkscape"
   viewBox="0 0 28.000017 28.000017"
   x="0px"
   y="0px"
   version="1.1"
   id="svg12"
   sodipodi:docname="noun_New Window_2440242.svg"
   width="28.000017"
   height="28.000017"
   inkscape:version="0.92.4 (5da689c313, 2019-01-14)">
  <metadata
     id="metadata18">
    <rdf:RDF>
      <cc:Work
         rdf:about="">
        <dc:format>image/svg+xml</dc:format>
        <dc:type
           rdf:resource="http://purl.org/dc/dcmitype/StillImage" />
        <dc:title>new window, pop up</dc:title>
      </cc:Work>
    </rdf:RDF>
  </metadata>
  <defs
     id="defs16" />
  <sodipodi:namedview
     pagecolor="#ffffff"
     bordercolor="#666666"
     borderopacity="1"
     objecttolerance="10"
     gridtolerance="10"
     guidetolerance="10"
     inkscape:pageopacity="0"
     inkscape:pageshadow="2"
     inkscape:window-width="1920"
     inkscape:window-height="986"
     id="namedview14"
     showgrid="false"
     fit-margin-top="0"
     fit-margin-left="0"
     fit-margin-right="0"
     fit-margin-bottom="0"
     inkscape:zoom="5.9"
     inkscape:cx="14"
     inkscape:cy="9.9999995"
     inkscape:window-x="-11"
     inkscape:window-y="-11"
     inkscape:window-maximized="1"
     inkscape:current-layer="svg12" />
  <title
     id="title2">new window, pop up</title>
  <g
     data-name="new window, pop up"
     id="g6"
     transform="translate(-2,-1.9999833)">
    <path
       d="m 30,16 v 9 a 5,5 0 0 1 -5,5 H 7 A 5,5 0 0 1 2,25 V 7 A 5,5 0 0 1 7,2 h 9 a 1,1 0 0 1 0,2 H 7 A 3,3 0 0 0 4,7 v 18 a 3,3 0 0 0 3,3 h 18 a 3,3 0 0 0 3,-3 v -9 a 1,1 0 0 1 2,0 z M 22,4 h 4.59 l -11.3,11.29 a 1,1 0 0 0 0,1.42 1,1 0 0 0 1.42,0 L 28,5.42 V 10 a 1,1 0 0 0 1,1 v 0 a 1,1 0 0 0 1,-1 V 3 A 1,1 0 0 0 29.71,2.29 1,1 0 0 0 29,2 h -7 a 1,1 0 0 0 0,2 z"
       id="path4"
       inkscape:connector-curvature="0" />
  </g>
</svg>
